<?xml version="1.0" encoding="UTF-8" standalone="no"?>
<svg xmlns="http://www.w3.org/2000/svg" width="128" height="128" viewBox="0 0 128 128">
  <defs>
    <linearGradient id="background" x1="18" y1="12" x2="110" y2="118" gradientUnits="userSpaceOnUse">
      <stop stop-color="#25243a"/>
      <stop offset="1" stop-color="#11111b"/>
    </linearGradient>
    <linearGradient id="frame" x1="28" y1="31" x2="97" y2="99" gradientUnits="userSpaceOnUse">
      <stop stop-color="#f6f5f4"/>
      <stop offset="1" stop-color="#c7c7d1"/>
    </linearGradient>
  </defs>
  <rect x="8" y="8" width="112" height="112" rx="28" fill="url(#background)"/>
  <path d="M31 52V34c0-2 1-3 3-3h18M76 31h18c2 0 3 1 3 3v18M97 76v18c0 2-1 3-3 3H76M52 97H34c-2 0-3-1-3-3V76"
        fill="none" stroke="url(#frame)" stroke-width="9" stroke-linecap="round"/>
  <path d="M61 53c0-4 3-7 7-7h15v15c0 4-3 7-7 7H61V53Z" fill="#8b5cf6"/>
  <path d="M91 38l2.7 7.3L101 48l-7.3 2.7L91 58l-2.7-7.3L81 48l7.3-2.7L91 38Z" fill="#d8b4fe"/>
</svg>
